<svg width="128" height="128" viewBox="0 0 128 128" fill="none" xmlns="http://www.w3.org/2000/svg">
<path d="M97.0779 83.214L28.3398 124.031L117.343 117.991L124.198 28.246L97.0779 83.214Z" fill="url(#paint0_linear_105_10)"/>
<path d="M117.488 117.93L109.839 65.131L89.002 92.645L117.488 117.93Z" fill="url(#paint1_linear_105_10)"/>
<path d="M117.592 117.93L61.5482 113.531L28.6382 123.916L117.592 117.93Z" fill="url(#paint2_linear_105_10)"/>
<path d="M28.7172 123.928L42.7182 78.061L11.9082 84.649L28.7172 123.928Z" fill="url(#paint3_linear_105_10)"/>
<path d="M88.996 92.797L76.114 42.337L39.248 76.895L88.996 92.797Z" fill="url(#paint4_linear_105_10)"/>
<path d="M121.275 43.047L86.4262 14.585L76.7222 45.958L121.275 43.047Z" fill="url(#paint5_linear_105_10)"/>
<path d="M104.978 4.43703L84.4808 15.764L71.5508 4.28503L104.978 4.43703Z" fill="url(#paint6_linear_105_10)"/>
<path d="M3.80176 100.034L12.3878 84.375L5.44176 65.72L3.80176 100.034Z" fill="url(#paint7_linear_105_10)"/>
<path d="M4.98096 65.131L11.968 84.952L42.333 78.14L77 45.922L86.783 14.847L71.38 3.96899L45.19 13.771C36.938 21.446 20.927 36.631 20.35 36.917C19.777 37.208 9.77496 56.112 4.98096 65.131V65.131Z" fill="white"/>
<path d="M29.519 29.521C47.401 11.791 70.456 1.31401 79.304 10.241C88.147 19.167 78.77 40.861 60.886 58.586C43.002 76.311 20.233 87.365 11.393 78.438C2.54397 69.518 11.635 47.247 29.519 29.521V29.521Z" fill="url(#paint8_linear_105_10)"/>
<path d="M28.7168 123.909L42.6068 77.897L88.7418 92.717C72.0618 108.359 53.5088 121.582 28.7168 123.909V123.909Z" fill="url(#paint9_linear_105_10)"/>
<path d="M77.062 45.831L88.906 92.742C102.84 78.092 115.345 62.341 121.469 42.859L77.062 45.831Z" fill="url(#paint10_linear_105_10)"/>
<path d="M121.348 43.097C126.088 28.792 127.181 8.27204 104.831 4.46204L86.4922 14.592L121.348 43.097V43.097Z" fill="url(#paint11_linear_105_10)"/>
<path d="M3.80176 99.828C4.45776 123.436 21.4908 123.787 28.7468 123.995L11.9878 84.855L3.80176 99.828V99.828Z" fill="#9E1209"/>
<path d="M77.1279 45.904C87.8359 52.485 109.414 65.702 109.851 65.945C110.531 66.328 119.155 51.403 121.112 42.969L77.1279 45.904V45.904Z" fill="url(#paint12_radial_105_10)"/>
<path d="M42.5889 77.897L61.1589 113.725C72.1389 107.77 80.7379 100.514 88.6129 92.742L42.5889 77.897Z" fill="url(#paint13_radial_105_10)"/>
<path d="M11.9142 84.904L9.2832 116.235C14.2472 123.016 21.0772 123.606 28.2432 123.077C23.0592 110.177 12.7052 84.381 11.9142 84.904V84.904Z" fill="url(#paint14_linear_105_10)"/>
<path d="M86.3838 14.67L123.275 19.847C121.306 11.504 115.26 6.12001 104.955 4.43701L86.3838 14.67Z" fill="url(#paint15_linear_105_10)"/>
<defs>
<linearGradient id="paint0_linear_105_10" x1="109.58" y1="134.95" x2="84.1818" y2="90.108" gradientUnits="userSpaceOnUse">
<stop stop-color="#FB7655"/>
<stop offset="0.41" stop-color="#E42B1E"/>
<stop offset="0.99" stop-color="#990000"/>
<stop offset="1" stop-color="#990000"/>
</linearGradient>
<linearGradient id="paint1_linear_105_10" x1="122.231" y1="97.28" x2="89.498" y2="75.315" gradientUnits="userSpaceOnUse">
<stop stop-color="#871101"/>
<stop offset="0.99" stop-color="#911209"/>
<stop offset="1" stop-color="#911209"/>
</linearGradient>
<linearGradient id="paint2_linear_105_10" x1="96.0422" y1="136.31" x2="63.3102" y2="114.345" gradientUnits="userSpaceOnUse">
<stop stop-color="#871101"/>
<stop offset="0.99" stop-color="#911209"/>
<stop offset="1" stop-color="#911209"/>
</linearGradient>
<linearGradient id="paint3_linear_105_10" x1="27.3172" y1="81.378" x2="32.3912" y2="114.356" gradientUnits="userSpaceOnUse">
<stop stop-color="white"/>
<stop offset="0.23" stop-color="#E57252"/>
<stop offset="0.46" stop-color="#DE3B20"/>
<stop offset="0.99" stop-color="#A60003"/>
<stop offset="1" stop-color="#A60003"/>
</linearGradient>
<linearGradient id="paint4_linear_105_10" x1="62.219" y1="50.587" x2="64.089" y2="84.243" gradientUnits="userSpaceOnUse">
<stop stop-color="white"/>
<stop offset="0.23" stop-color="#E4714E"/>
<stop offset="0.56" stop-color="#BE1A0D"/>
<stop offset="0.99" stop-color="#A80D00"/>
<stop offset="1" stop-color="#A80D00"/>
</linearGradient>
<linearGradient id="paint5_linear_105_10" x1="93.1912" y1="19.477" x2="98.7892" y2="43.599" gradientUnits="userSpaceOnUse">
<stop stop-color="white"/>
<stop offset="0.18" stop-color="#E46342"/>
<stop offset="0.4" stop-color="#C82410"/>
<stop offset="0.99" stop-color="#A80D00"/>
<stop offset="1" stop-color="#A80D00"/>
</linearGradient>
<linearGradient id="paint6_linear_105_10" x1="76.0998" y1="10.982" x2="100.219" y2="-1.07696" gradientUnits="userSpaceOnUse">
<stop stop-color="white"/>
<stop offset="0.54" stop-color="#C81F11"/>
<stop offset="0.99" stop-color="#BF0905"/>
<stop offset="1" stop-color="#BF0905"/>
</linearGradient>
<linearGradient id="paint7_linear_105_10" x1="6.17376" y1="72.972" x2="8.15976" y2="92.847" gradientUnits="userSpaceOnUse">
<stop stop-color="white"/>
<stop offset="0.31" stop-color="#DE4024"/>
<stop offset="0.99" stop-color="#BF190B"/>
<stop offset="1" stop-color="#BF190B"/>
</linearGradient>
<linearGradient id="paint8_linear_105_10" x1="-7.47403" y1="98.219" x2="85.845" y2="2.26101" gradientUnits="userSpaceOnUse">
<stop stop-color="#BD0012"/>
<stop offset="0.07" stop-color="white"/>
<stop offset="0.17" stop-color="white"/>
<stop offset="0.27" stop-color="#C82F1C"/>
<stop offset="0.33" stop-color="#820C01"/>
<stop offset="0.46" stop-color="#A31601"/>
<stop offset="0.72" stop-color="#B31301"/>
<stop offset="0.99" stop-color="#E82609"/>
<stop offset="1" stop-color="#E82609"/>
</linearGradient>
<linearGradient id="paint9_linear_105_10" x1="64.0068" y1="107.898" x2="35.8978" y2="100.961" gradientUnits="userSpaceOnUse">
<stop stop-color="#8C0C01"/>
<stop offset="0.54" stop-color="#990C00"/>
<stop offset="0.99" stop-color="#A80D0E"/>
<stop offset="1" stop-color="#A80D0E"/>
</linearGradient>
<linearGradient id="paint10_linear_105_10" x1="112.285" y1="74.163" x2="87.314" y2="51.783" gradientUnits="userSpaceOnUse">
<stop stop-color="#7E110B"/>
<stop offset="0.99" stop-color="#9E0C00"/>
<stop offset="1" stop-color="#9E0C00"/>
</linearGradient>
<linearGradient id="paint11_linear_105_10" x1="121.459" y1="33.099" x2="109.021" y2="19.801" gradientUnits="userSpaceOnUse">
<stop stop-color="#79130D"/>
<stop offset="0.99" stop-color="#9E120B"/>
<stop offset="1" stop-color="#9E120B"/>
</linearGradient>
<radialGradient id="paint12_radial_105_10" cx="0" cy="0" r="1" gradientUnits="userSpaceOnUse" gradientTransform="translate(91.2029 52.211) scale(30.601 30.601)">
<stop stop-color="#A80D00"/>
<stop offset="0.99" stop-color="#7E0E08"/>
<stop offset="1" stop-color="#7E0E08"/>
</radialGradient>
<radialGradient id="paint13_radial_105_10" cx="0" cy="0" r="1" gradientUnits="userSpaceOnUse" gradientTransform="translate(48.8249 92.535) scale(40.679 40.679)">
<stop stop-color="#A30C00"/>
<stop offset="0.99" stop-color="#800E08"/>
<stop offset="1" stop-color="#800E08"/>
</radialGradient>
<linearGradient id="paint14_linear_105_10" x1="20.0092" y1="123.885" x2="9.8732" y2="89.494" gradientUnits="userSpaceOnUse">
<stop stop-color="#8B2114"/>
<stop offset="0.43" stop-color="#9E100A"/>
<stop offset="0.99" stop-color="#B3100C"/>
<stop offset="1" stop-color="#B3100C"/>
</linearGradient>
<linearGradient id="paint15_linear_105_10" x1="97.7718" y1="9.92401" x2="120.496" y2="19.955" gradientUnits="userSpaceOnUse">
<stop stop-color="#B31000"/>
<stop offset="0.44" stop-color="#910F08"/>
<stop offset="0.99" stop-color="#791C12"/>
<stop offset="1" stop-color="#791C12"/>
</linearGradient>
</defs>
</svg>
